<svg width="22" height="22" viewBox="0 0 22 22" fill="none" xmlns="http://www.w3.org/2000/svg">
<g clip-path="url(#clip0_43_2173)">
<g clip-path="url(#clip1_43_2173)">
<g clip-path="url(#clip2_43_2173)">
<path d="M17 11C17 7.68629 14.3137 5 11 5C7.68629 5 5 7.68629 5 11C5 14.3137 7.68629 17 11 17C14.3137 17 17 14.3137 17 11Z" fill="white"/>
<path fill-rule="evenodd" clip-rule="evenodd" d="M5.86075 5.86075C5 6.7215 5 8.10685 5 10.8776V11.1224C5 13.8931 5 15.2785 5.86075 16.1392C6.7215 17 8.10685 17 10.8776 17H11.1224C13.8931 17 15.2785 17 16.1392 16.1392C17 15.2785 17 13.8931 17 11.1224V10.8776C17 8.10685 17 6.7215 16.1392 5.86075C15.2785 5 13.8931 5 11.1224 5H10.8776C8.10685 5 6.7215 5 5.86075 5.86075ZM14.5966 8.00338C13.8187 7.96975 13.0504 8.18778 12.4035 8.62578C11.7567 9.06378 11.265 9.69888 10.9999 10.4387C10.7349 9.69888 10.2432 9.06378 9.59635 8.62578C8.94948 8.18778 8.1812 7.96975 7.40326 8.00338C7.37714 8.63208 7.50995 9.25713 7.78918 9.81955C8.06843 10.382 8.48485 10.8633 8.99918 11.218C9.26305 11.4011 9.4787 11.6466 9.6274 11.933C9.7761 12.2195 9.85337 12.5383 9.8525 12.8618V14H12.1476V12.8618C12.1467 12.5383 12.2239 12.2195 12.3726 11.9331C12.5212 11.6466 12.7368 11.4011 13.0007 11.218C13.5152 10.8634 13.9317 10.3821 14.2109 9.8197C14.4902 9.25722 14.6229 8.6321 14.5966 8.00338ZM9.12962 12.8618C9.1307 12.6572 9.0823 12.4555 8.9886 12.2742C8.89493 12.0928 8.75882 11.9374 8.59212 11.8214C8.36555 11.6651 8.15395 11.4879 7.96003 11.2919C7.75038 11.0796 7.5627 10.8462 7.39994 10.5954V14H9.12962V12.8618ZM13.0113 12.2742C12.9176 12.4555 12.8692 12.6572 12.8703 12.8618V14H14.5999V10.5954C14.4372 10.8462 14.2495 11.0796 14.0399 11.2919C13.8459 11.4879 13.6343 11.6651 13.4078 11.8214C13.241 11.9374 13.105 12.0928 13.0113 12.2742Z" fill="#E0095F"/>
</g>
</g>
</g>
<defs>
<clipPath id="clip0_43_2173">
<rect width="12" height="12" fill="white" transform="translate(5 5)"/>
</clipPath>
<clipPath id="clip1_43_2173">
<rect width="12" height="12" fill="white" transform="translate(5 5)"/>
</clipPath>
<clipPath id="clip2_43_2173">
<rect width="12" height="12" fill="white" transform="translate(5 5)"/>
</clipPath>
</defs>
</svg>
